<svg width="62" height="64" viewBox="0 0 62 64" fill="none" xmlns="http://www.w3.org/2000/svg">
<path d="M60.6974 39.6611C61.3395 40.0481 61.5963 40.8223 61.4679 41.4675C59.9269 46.1125 57.6154 50.2415 54.405 53.7252C53.8913 54.2414 53.1208 54.3704 52.4787 53.9833L46.9568 50.8866C44.6453 52.822 42.077 54.3704 39.2518 55.4026V61.7251C39.2518 62.3702 38.7382 63.0153 37.9677 63.2734C33.4731 64.1766 28.7217 64.3056 23.9702 63.2734C23.3282 63.0153 22.8145 62.3702 22.8145 61.7251V55.4026C19.8609 54.3704 17.2926 52.822 14.9811 50.8866L9.45917 53.9833C8.81708 54.3704 8.04658 54.2414 7.53292 53.7252C4.45092 50.2415 2.011 46.1125 0.598419 41.4675C0.341586 40.8223 0.598419 40.0481 1.2405 39.6611L6.76242 36.5644C6.24875 33.4677 6.24875 30.5 6.76242 27.4033L1.2405 24.3066C0.598419 23.9195 0.341586 23.1453 0.598419 22.5002C2.011 17.8551 4.45092 13.7262 7.53292 10.2424C8.04658 9.72629 8.81708 9.59726 9.45917 9.98434L14.9811 13.2101C17.2926 11.1456 19.8609 9.59726 22.8145 8.56502V2.24259C22.8145 1.59745 23.1997 0.952301 23.9702 0.823271C28.4648 -0.208962 33.2162 -0.337991 37.9677 0.823271C38.7382 0.952301 39.2518 1.59745 39.2518 2.24259V8.56502C42.077 9.59726 44.6453 11.1456 46.9568 13.081L52.4787 9.98434C53.1208 9.59726 53.8913 9.72629 54.405 10.2424C57.487 13.7262 59.9269 17.8551 61.3395 22.5002C61.5963 23.1453 61.3395 23.9195 60.6974 24.3066L55.1755 27.4033C55.8176 30.5 55.8176 33.4677 55.1755 36.5644L60.6974 39.6611ZM31.0332 42.2416C36.6835 42.2416 41.3065 37.7256 41.3065 31.9193C41.3065 26.242 36.6835 21.597 31.0332 21.597C25.2544 21.597 20.7598 26.242 20.7598 31.9193C20.7598 37.7256 25.2544 42.2416 31.0332 42.2416Z" fill="url(#paint0_linear_0_87)"/>
<defs>
<linearGradient id="paint0_linear_0_87" x1="31" y1="0" x2="31" y2="382" gradientUnits="userSpaceOnUse">
<stop stop-color="white"/>
<stop offset="1" stop-color="#F98C57" stop-opacity="0"/>
</linearGradient>
</defs>
</svg>
