<svg width="576" height="279" viewBox="0 0 576 279" fill="none" xmlns="http://www.w3.org/2000/svg">
<g filter="url(#filter0_d_0_376)">
<path d="M38.2784 45.4375L39.2715 44.0146C39.8182 43.2313 40.4312 42.4914 41.0986 41.808C44.1388 38.6955 47.691 36.0995 51.5825 34.1537L52.1772 33.9204C56.2868 32.3089 60.662 31.4816 65.0762 31.4816H85.7844H107.294H135.484L224.729 28.2752L254.255 26.1376L277.368 24H302.618H327.869H346.44H357.128H369.152H382.913H412.438H430.341H447.442H468.818C477.844 24 486.81 25.4551 495.373 28.3093L496.874 28.8096L512.105 34.2873L523.06 39.0969L523.429 39.2626C530.663 42.5051 536.401 48.3643 539.493 55.6634C541.785 61.041 542.966 66.8264 542.966 72.6721V76.9059V88.6628V107.1V108.351C542.966 115.784 542.279 123.201 540.912 130.508L539.493 138.095L539.019 139.648C536.143 149.074 531.939 158.044 526.533 166.285L522.726 172.43L519.051 178.362C518.963 178.504 518.859 178.637 518.741 178.756C514.496 183.085 508.689 185.523 502.626 185.523H496.874H476.299H456.393H448.873C443.863 185.523 438.895 186.431 434.209 188.203C431.638 189.175 429.184 190.43 426.892 191.946L422.88 194.599C422.333 194.961 421.816 195.367 421.336 195.815L412.438 204.094L402.819 211.576L394.536 219.859L388.724 224.668L382.913 229.478L373.758 238.008C372.034 239.615 370.067 240.939 367.93 241.931C365.211 243.194 362.095 243.294 359.3 242.21L358.367 241.847C356.518 241.13 355.84 238.864 356.99 237.25L359.029 234.387C360.779 231.931 362.139 229.219 363.061 226.347L364.568 221.652C364.949 220.464 365.144 219.223 365.144 217.976V211.576L363.859 201.414C363.736 200.442 363.516 199.485 363.203 198.556L362.221 195.649C360.931 191.829 358.128 188.706 354.468 187.013L354.185 186.882C352.251 185.987 350.145 185.523 348.014 185.523H343.229C338.525 185.523 333.833 186.023 329.234 187.013C321.043 188.776 312.689 189.665 304.312 189.665H290.862H263.34H241.964H215.912H189.859L159.131 188.997L139.091 188.195L106.492 186.726L84.3254 185.858C78.6904 185.638 73.1775 184.151 68.1961 181.508C64.5334 179.564 61.1809 177.086 58.249 174.154L55.438 171.343C52.0778 167.983 49.1255 164.238 46.6423 160.186L42.7649 153.86L35.5505 138.897L31.1416 125.67L31.0132 125.095C28.3458 113.134 27 100.917 27 88.6628V77.8895C27 74.4848 27.405 71.0922 28.2064 67.7831C30.1462 59.7735 33.5619 52.1955 38.2784 45.4375Z" fill="white"/>
<path d="M48.302 144.242L31.6763 120.059C31.6763 126.408 32.9454 132.692 35.4091 138.544L35.9515 139.832L40.2267 147.848L45.3036 158.269L46.2042 159.689C50.204 165.996 55.2835 171.55 61.21 176.095C66.9974 180.533 73.7715 183.508 80.9557 184.765L86.0518 185.657L101.683 187.127H118.383H136.419L155.658 188.73H179.706L204.155 190.333H229.539H251.984H282.044H307.975C308.233 190.333 308.492 190.312 308.747 190.27L331.343 186.592L354.322 182.851H329.873H300.882H265.21H237.021L210.701 180.046L186.386 178.175H148.844H138.949C129.984 178.175 121.045 177.224 112.281 175.336L97.7869 172.214C93.0898 171.202 88.4895 169.784 84.0383 167.975L76.6357 164.966C72.2383 163.179 68.0501 160.914 64.1463 158.214L57.9832 153.951C54.1933 151.329 50.9127 148.039 48.302 144.242Z" fill="#E2F2F5" stroke="#EFF8FA" stroke-width="0.267202"/>
<path d="M449.875 181.199L440.762 186.592H450.114H455.458H462.405H470.02H478.704H486.186H494.068H501.044C501.38 186.592 501.716 186.557 502.045 186.487L507.829 185.256L512.626 183.817C512.99 183.708 513.339 183.556 513.667 183.365L516.38 181.783L518.796 179.97C519.318 179.579 519.754 179.087 520.079 178.522L522.125 174.969L522.272 174.681C524.302 170.704 526.846 167.011 529.838 163.696C530.127 163.375 530.364 163.012 530.541 162.618L533.213 156.666L536.821 146.111L539.359 138.362L542.622 127.694C542.762 127.238 542.833 126.764 542.833 126.287V115.784V91.6021L535.752 115.784L530.381 136.09C530.31 136.358 530.216 136.618 530.101 136.869L527.003 143.606C522.249 153.948 513.634 162.017 503.004 166.087L496.639 168.524C496.351 168.634 496.053 168.717 495.75 168.77L472.449 172.856C464.483 174.253 456.835 177.08 449.875 181.199Z" fill="#E2F2F5" stroke="#EFF8FA" stroke-width="0.267202"/>
<path d="M263.977 158.955C278.324 158.955 289.955 147.324 289.955 132.977C289.955 118.631 278.324 107 263.977 107C249.631 107 238 118.631 238 132.977C238 147.324 249.631 158.955 263.977 158.955Z" fill="#FFCB4C"/>
<path d="M258.666 139.117C258.444 138.94 258.272 138.699 258.189 138.408C257.984 137.705 258.388 137.005 259.091 136.848C266.01 135.288 270.669 138.931 270.866 139.087C271.453 139.554 271.567 140.378 271.13 140.928C270.693 141.475 269.865 141.541 269.28 141.076C269.112 140.948 265.425 138.138 259.833 139.398C259.415 139.492 258.987 139.374 258.666 139.117Z" fill="#65471B"/>
<path d="M256.519 128.106C258.313 128.106 259.766 126.289 259.766 124.047C259.766 121.806 258.313 119.989 256.519 119.989C254.726 119.989 253.272 121.806 253.272 124.047C253.272 126.289 254.726 128.106 256.519 128.106Z" fill="#65471B"/>
<path d="M273.719 129.729C275.512 129.729 276.966 127.912 276.966 125.67C276.966 123.429 275.512 121.612 273.719 121.612C271.925 121.612 270.472 123.429 270.472 125.67C270.472 127.912 271.925 129.729 273.719 129.729Z" fill="#65471B"/>
<path d="M262.871 160.683C262.871 160.683 264.804 160.055 265.055 158.617C265.319 157.132 264.101 156.834 264.101 156.834C264.101 156.834 265.692 156.516 265.892 154.731C266.08 153.049 264.577 152.649 264.577 152.649C264.577 152.649 266.059 152.037 266.129 150.297C266.187 148.831 264.609 148.115 264.609 148.115C264.609 148.115 272.307 146.249 273.099 146.066C273.887 145.882 275.116 145.126 274.732 143.477C274.352 141.827 272.893 141.769 272.139 141.944C271.384 142.12 261.834 144.337 258.539 145.104L256.34 145.615C255.515 145.809 255.141 145.447 255.723 144.832C256.499 144.013 256.996 143.107 257.169 141.604C257.35 140.022 256.814 138.069 256.507 137.311C255.935 135.904 254.971 134.791 253.857 134.409C252.12 133.813 250.885 134.9 251.501 136.795C252.424 139.628 251.819 141.952 250.228 143.355C246.486 146.651 244.745 149.001 245.903 154.01C247.169 159.473 252.592 162.989 258.055 161.724L262.871 160.683Z" fill="#F19020"/>
<path d="M250.677 116.678C250.426 116.543 250.214 116.335 250.079 116.068C249.749 115.414 250.018 114.651 250.68 114.369C257.198 111.571 262.444 114.303 262.664 114.421C263.326 114.774 263.593 115.562 263.262 116.184C262.932 116.803 262.131 117.018 261.469 116.67C261.281 116.574 257.142 114.482 251.876 116.742C251.483 116.908 251.04 116.872 250.677 116.678ZM269.22 122.408C268.981 122.258 268.783 122.037 268.667 121.76C268.381 121.085 268.702 120.343 269.382 120.103C276.076 117.756 281.125 120.837 281.336 120.97C281.97 121.367 282.184 122.173 281.813 122.77C281.443 123.366 280.627 123.526 279.993 123.134C279.81 123.024 275.826 120.657 270.416 122.555C270.01 122.694 269.571 122.625 269.22 122.408Z" fill="#65471B"/>
</g>
<defs>
<filter id="filter0_d_0_376" x="0.299999" y="0.299999" width="575.366" height="278.356" filterUnits="userSpaceOnUse" color-interpolation-filters="sRGB">
<feFlood flood-opacity="0" result="BackgroundImageFix"/>
<feColorMatrix in="SourceAlpha" type="matrix" values="0 0 0 0 0 0 0 0 0 0 0 0 0 0 0 0 0 0 127 0" result="hardAlpha"/>
<feOffset dx="3" dy="6"/>
<feGaussianBlur stdDeviation="14.85"/>
<feComposite in2="hardAlpha" operator="out"/>
<feColorMatrix type="matrix" values="0 0 0 0 0.40901 0 0 0 0 0.878348 0 0 0 0 0.950984 0 0 0 1 0"/>
<feBlend mode="normal" in2="BackgroundImageFix" result="effect1_dropShadow_0_376"/>
<feBlend mode="normal" in="SourceGraphic" in2="effect1_dropShadow_0_376" result="shape"/>
</filter>
</defs>
</svg>
