<svg width="274" height="134" viewBox="0 0 274 134" fill="none" xmlns="http://www.w3.org/2000/svg">
<g filter="url(#filter0_d_0_747)">
<path d="M18.3611 22.1902L18.8332 21.5138C19.093 21.1415 19.3844 20.7897 19.7017 20.4649C21.1468 18.9854 22.8353 17.7514 24.6851 16.8265L24.9678 16.7156C26.9213 15.9496 29.001 15.5563 31.0993 15.5563H40.9427H51.1672H64.567L106.989 14.0322L121.024 13.0161L132.011 12H144.013H156.016H164.843H169.924H175.639H182.18H196.215H204.725H212.854H223.015C227.305 12 231.567 12.6917 235.638 14.0484L236.351 14.2862L243.591 16.89L248.798 19.1762L248.974 19.255C252.412 20.7963 255.14 23.5814 256.61 27.051C257.699 29.6072 258.261 32.3572 258.261 35.1359V37.1484V42.737V51.5008V52.0956C258.261 55.6289 257.934 59.1546 257.284 62.6277L256.61 66.2343L256.384 66.9722C255.017 71.4532 253.019 75.7166 250.449 79.634L248.64 82.5553L246.893 85.3747C246.851 85.4424 246.801 85.5053 246.746 85.5622C244.728 87.6197 241.967 88.7789 239.085 88.7789H236.351H226.571H217.109H213.534C211.153 88.7789 208.791 89.2104 206.564 90.0525C205.342 90.5145 204.175 91.1113 203.086 91.8318L201.179 93.0928C200.918 93.2649 200.673 93.4582 200.444 93.6708L196.215 97.6063L191.643 101.163L187.705 105.1L184.943 107.386L182.18 109.672L177.829 113.727C177.009 114.491 176.074 115.12 175.058 115.592C173.766 116.192 172.285 116.24 170.956 115.724L170.513 115.552C169.634 115.211 169.312 114.134 169.859 113.367L170.828 112.006C171.66 110.838 172.306 109.549 172.744 108.184L173.46 105.952C173.642 105.388 173.734 104.798 173.734 104.205V101.163L173.123 96.3325C173.065 95.8704 172.96 95.4153 172.811 94.974L172.345 93.592C171.732 91.7761 170.399 90.2918 168.66 89.4869L168.525 89.4247C167.606 88.9993 166.605 88.7789 165.592 88.7789H163.317C161.081 88.7789 158.851 89.0163 156.665 89.4869C152.771 90.325 148.8 90.7476 144.818 90.7476H138.425H125.342H115.181H102.798H90.414L75.8076 90.4301L66.2817 90.0491L50.7862 89.3505L40.2492 88.9382C37.5707 88.8334 34.9501 88.1265 32.5823 86.8701C30.8412 85.9463 29.2476 84.7681 27.854 83.3745L26.5178 82.0382C24.9205 80.441 23.5172 78.661 22.3368 76.7352L20.4937 73.728L17.0644 66.6153L14.9687 60.3282L14.9077 60.0545C13.6397 54.3693 13 48.5619 13 42.737V37.616C13 35.9976 13.1925 34.3849 13.5734 32.812C14.4955 29.0047 16.1191 25.4025 18.3611 22.1902Z" fill="white"/>
<path d="M23.1253 69.1562L15.2224 57.661C15.2224 60.6788 15.8257 63.6662 16.9968 66.4476L17.2546 67.0599L19.2868 70.8703L21.7 75.8238L22.1281 76.4989C24.0294 79.497 26.444 82.1369 29.2611 84.2973C32.012 86.4071 35.232 87.821 38.647 88.4186L41.0694 88.8425L48.4996 89.5411H56.4379H65.0112L74.1561 90.3032H85.5872L97.2088 91.0652H109.275H119.944H134.233H146.559C146.682 91.0652 146.805 91.0553 146.926 91.0355L157.667 89.2871L168.59 87.5089H156.968H143.187H126.231H112.831L100.321 86.1753L88.7625 85.2862H70.9173H66.2137C61.9524 85.2862 57.7032 84.8338 53.5374 83.9365L46.6476 82.4526C44.4149 81.9717 42.2282 81.2974 40.1123 80.4374L36.5935 79.0072C34.5033 78.1576 32.5125 77.0813 30.6568 75.7977L27.7272 73.7712C25.9257 72.5251 24.3663 70.9612 23.1253 69.1562Z" fill="#E2F2F5" stroke="#EFF8FA" stroke-width="0.127012"/>
<path d="M214.01 86.7233L209.678 89.287H214.124H216.664H219.966H223.586H227.714H231.271H235.017H238.333C238.493 89.287 238.653 89.2702 238.809 89.237L241.559 88.652L243.839 87.968C244.011 87.9161 244.178 87.8439 244.334 87.753L245.623 87.0008L246.772 86.1393C247.019 85.9535 247.227 85.7193 247.381 85.451L248.354 83.762L248.424 83.625C249.389 81.7346 250.598 79.9791 252.02 78.4033C252.158 78.251 252.27 78.0782 252.354 77.891L253.625 75.0616L255.339 70.0447L256.546 66.3613L258.097 61.2902C258.163 61.0735 258.197 60.8481 258.197 60.6214V55.6288V44.1342L254.831 55.6288L252.278 65.2813C252.244 65.4083 252.2 65.5323 252.145 65.6517L250.673 68.8539C248.413 73.7698 244.318 77.6055 239.265 79.54L236.239 80.6985C236.102 80.7508 235.961 80.7899 235.817 80.8152L224.741 82.7577C220.954 83.4217 217.319 84.7652 214.01 86.7233Z" fill="#E2F2F5" stroke="#EFF8FA" stroke-width="0.127012"/>
</g>
<defs>
<filter id="filter0_d_0_747" x="0.308353" y="0.73438" width="273.496" height="132.315" filterUnits="userSpaceOnUse" color-interpolation-filters="sRGB">
<feFlood flood-opacity="0" result="BackgroundImageFix"/>
<feColorMatrix in="SourceAlpha" type="matrix" values="0 0 0 0 0 0 0 0 0 0 0 0 0 0 0 0 0 0 127 0" result="hardAlpha"/>
<feOffset dx="1.42603" dy="2.85206"/>
<feGaussianBlur stdDeviation="7.05884"/>
<feComposite in2="hardAlpha" operator="out"/>
<feColorMatrix type="matrix" values="0 0 0 0 0.40901 0 0 0 0 0.878348 0 0 0 0 0.950984 0 0 0 1 0"/>
<feBlend mode="normal" in2="BackgroundImageFix" result="effect1_dropShadow_0_747"/>
<feBlend mode="normal" in="SourceGraphic" in2="effect1_dropShadow_0_747" result="shape"/>
</filter>
</defs>
</svg>
