<svg width="73" height="56" viewBox="0 0 73 56" fill="none" xmlns="http://www.w3.org/2000/svg">
<path d="M62.827 17.491C62.827 25.0371 50.942 29.9051 36.2812 29.9051C21.6203 29.9051 9.73535 25.0371 9.73535 17.491C9.73535 9.94501 21.6203 0.736816 36.2812 0.736816C50.942 0.736816 62.827 9.94501 62.827 17.491Z" fill="#562B30"/>
<circle cx="48.4596" cy="11.1646" r="3.74765" fill="white"/>
<path d="M36.1612 8.42993L36.1612 36.0568C36.1612 45.0789 43.4751 52.3927 52.4971 52.3927H54.7793C62.541 52.3927 68.833 46.1007 68.833 38.339V38.339" stroke="#562B30" stroke-width="6.87069" stroke-linecap="round" stroke-linejoin="round"/>
<path d="M36.161 8.42749L36.161 36.0544C36.161 45.0764 28.8472 52.3903 19.8251 52.3903H17.5429C9.7813 52.3903 3.48926 46.0982 3.48926 38.3366V38.3366" stroke="#562B30" stroke-width="6.87069" stroke-linecap="round" stroke-linejoin="round"/>
</svg>
