<svg width="492" height="348" viewBox="0 0 492 348" fill="none" xmlns="http://www.w3.org/2000/svg">
<path d="M5.36546 164.508L24.409 133.498C31.4013 122.112 44.8471 116.416 57.8906 119.314L59.3411 119.637L76.2739 124.151C77.8979 124.584 79.5542 124.886 81.2267 125.053L104.544 127.385H130.375H147.156C148.881 127.385 150.603 127.242 152.304 126.959L180.744 122.219L202.622 116.751C211.305 114.58 220.451 117.737 225.947 124.802L230.976 131.842C231.927 133.173 232.772 134.576 233.504 136.039L237.571 144.172L245.32 157.085L251.385 166.182C252.505 167.862 253.46 169.646 254.237 171.509L256.45 176.821C258.448 181.614 258.846 186.925 257.586 191.963C257.159 193.672 256.546 195.329 255.758 196.905L255.342 197.736C253.837 200.747 251.855 203.496 249.475 205.876L247.513 207.838C246.054 209.296 244.456 210.606 242.739 211.75L241.638 212.484C238.943 214.281 235.985 215.649 232.87 216.538L228.53 217.778L222.774 219.697C221.454 220.137 220.072 220.361 218.68 220.361C215.031 220.361 212.241 223.613 212.796 227.22L213.032 228.755C213.811 233.816 217.615 237.88 222.614 238.99L224.339 239.374C225.408 239.611 226.499 239.731 227.594 239.731H234.988H242.737H247.385C249.447 239.731 251.504 239.527 253.527 239.123L260.204 237.788C262.33 237.363 264.406 236.718 266.398 235.864L272.442 233.274L282.774 228.109L290.938 222.667C293.234 221.136 295.318 219.309 297.136 217.232L301.465 212.285C302.777 210.785 303.944 209.164 304.948 207.442L311.06 196.966C312.004 195.348 312.801 193.649 313.441 191.888L316.483 183.524C317.255 181.401 317.796 179.2 318.094 176.96L320.228 160.959L324.103 139.007L327.63 115.49C327.861 113.952 327.977 112.399 327.977 110.844V104.864C327.977 101.815 328.422 98.7831 329.298 95.8632L331.852 87.3532L333.754 78.7922C334.207 76.7566 334.861 74.7712 335.708 72.8657L339.601 64.1091L341.429 59.2343C342.782 55.6279 344.788 52.302 347.347 49.4235L353.807 42.1563L360.273 33.8448C361.982 31.6476 363.977 29.6881 366.204 28.018L373.18 22.7862L382.716 16.1124C384.959 14.5422 387.399 13.273 389.973 12.3372L400.302 8.58153L414.509 3.41617L422.777 1.5791C425.007 1.08352 427.285 0.833496 429.57 0.833496H436.465H442.068C444.353 0.833496 446.631 1.08352 448.861 1.5791L454.069 2.73618C456.104 3.18838 458.089 3.84266 459.994 4.68928L468.753 8.58153L477.2 12.3352C479.307 13.2718 481.275 14.4957 483.047 15.9721L484.925 17.5367C487.022 19.2846 488.63 21.5478 489.588 24.1043L489.944 25.0525C491.255 28.548 491.051 32.4316 489.381 35.7707C488.553 37.4272 487.38 38.9034 485.957 40.089C482.483 42.9835 477.775 43.9957 473.427 42.7537L472.687 42.5423C471.788 42.2855 470.915 41.946 470.079 41.528L466.004 39.4909C464.395 38.6867 462.72 38.0225 460.998 37.5057L450.671 34.4083L440.511 31.6376C437.825 30.9053 435.054 30.5343 432.271 30.5343H426.854C423.806 30.5343 420.775 30.9791 417.856 31.8548L413.096 33.2824C410.604 34.0301 408.214 35.0855 405.983 36.4242L396.428 42.1563L387.876 48.569C386.691 49.4581 385.569 50.4303 384.521 51.4781L377.703 58.2961C376.412 59.5863 375.237 60.9868 374.191 62.4816L369.142 69.6933C367.536 71.9864 366.246 74.4843 365.304 77.1204L360.265 91.2272L356.391 106.723L353.807 124.802L350.541 141.131C350.137 143.153 349.933 145.211 349.933 147.274V162.241C349.933 163.966 349.79 165.689 349.507 167.391L346.462 185.653C346.193 187.267 345.798 188.857 345.281 190.409L340.688 204.186C339.965 206.354 339.008 208.436 337.832 210.396L331.852 220.361L326.086 229.968C324.769 232.164 323.187 234.19 321.376 236.001L315.062 242.314L305.441 249.795C304.108 250.832 302.693 251.759 301.211 252.568L289.232 259.101L278.899 262.975L271.584 265.901C267.885 267.38 263.937 268.141 259.953 268.141H250.486H234.988H224.656H220.78C217.214 268.141 214.323 271.031 214.323 274.597V287.703C214.323 291.838 213.504 295.933 211.914 299.75L207.866 309.463L198.825 326.251L193.555 334.156C190.274 339.076 185.411 342.774 179.801 344.644C175.425 346.102 170.645 345.972 166.361 344.259C162.907 342.878 161.251 338.936 162.682 335.502L163.761 332.913C165.594 328.515 166.537 323.798 166.537 319.033V314.629V307.27C166.537 304.497 165.671 301.794 164.059 299.537C161.562 296.042 157.53 293.967 153.234 293.967H139.415H113.585H100.81C96.6224 293.967 92.6435 295.797 89.9177 298.977C87.6884 301.577 86.463 304.889 86.463 308.315V318.9C86.463 323.761 87.3375 328.582 89.0446 333.134L90.1593 336.106C92.1203 341.335 88.2552 346.912 82.671 346.912C80.9408 346.912 79.2572 346.351 77.8729 345.313L74.9341 343.109C68.0422 337.941 62.1652 331.543 57.5991 324.239L51.592 314.629L39.401 290.25C37.2261 285.901 36.0938 281.105 36.0938 276.242V239.289C36.0938 229.774 31.7682 220.775 24.3378 214.832L12.4905 205.355C0.152063 195.486 -2.90298 177.971 5.36546 164.508Z" fill="#D2714C" stroke="#D2714C" stroke-width="0.782983"/>
</svg>
